<?xml version="1.0" encoding="UTF-8" standalone="no"?>
<!-- Created with Inkscape (http://www.inkscape.org/) -->

<svg
   version="1.1"
   id="svg9"
   width="641mm"
   height="282mm"
   viewBox="0 0 2422.6772 1065.8316"
   sodipodi:docname="ORGM LOGO.svg"
   inkscape:version="1.2 (dc2aedaf03, 2022-05-15)"
   xmlns:inkscape="http://www.inkscape.org/namespaces/inkscape"
   xmlns:sodipodi="http://sodipodi.sourceforge.net/DTD/sodipodi-0.dtd"
   xmlns:xlink="http://www.w3.org/1999/xlink"
   xmlns="http://www.w3.org/2000/svg"
   xmlns:svg="http://www.w3.org/2000/svg">
  <defs
     id="defs13">
    <rect
       x="797.06207"
       y="936.32263"
       width="108.95093"
       height="54.885056"
       id="rect30243" />
    <rect
       x="797.0448"
       y="898.99237"
       width="1474.1614"
       height="118.09005"
       id="rect7655" />
    <rect
       x="523.63989"
       y="959.23413"
       width="1237.2729"
       height="366.08453"
       id="rect961" />
    <linearGradient
       inkscape:collect="always"
       id="linearGradient283">
      <stop
         style="stop-color:#003380;stop-opacity:1"
         offset="0"
         id="stop279" />
      <stop
         style="stop-color:#5599ff;stop-opacity:1"
         offset="1"
         id="stop281" />
    </linearGradient>
    <linearGradient
       inkscape:collect="always"
       xlink:href="#linearGradient283"
       id="linearGradient277"
       x1="-1834.963"
       y1="2408.3889"
       x2="61.535316"
       y2="2407.2263"
       gradientUnits="userSpaceOnUse"
       gradientTransform="translate(2231.4461,-1779.2588)" />
    <linearGradient
       inkscape:collect="always"
       xlink:href="#linearGradient283"
       id="linearGradient277-6"
       x1="-1834.963"
       y1="2408.3889"
       x2="61.535316"
       y2="2407.2263"
       gradientUnits="userSpaceOnUse"
       gradientTransform="translate(2231.446,-1779.2588)" />
    <rect
       x="797.0448"
       y="898.99237"
       width="1600.7242"
       height="91.161803"
       id="rect7655-4" />
    <linearGradient
       inkscape:collect="always"
       xlink:href="#linearGradient283"
       id="linearGradient513"
       gradientUnits="userSpaceOnUse"
       gradientTransform="translate(-3333.6894,-3822.9075)"
       x1="-1834.963"
       y1="2408.3889"
       x2="61.535316"
       y2="2407.2263" />
    <rect
       x="797.0448"
       y="898.99237"
       width="1549.5605"
       height="390.06534"
       id="rect7655-0" />
  </defs>
  <sodipodi:namedview
     id="namedview11"
     pagecolor="#505050"
     bordercolor="#eeeeee"
     borderopacity="1"
     inkscape:pageshadow="0"
     inkscape:pageopacity="0"
     inkscape:pagecheckerboard="0"
     showgrid="false"
     inkscape:zoom="0.34307206"
     inkscape:cx="1276.6997"
     inkscape:cy="889.02605"
     inkscape:window-width="2560"
     inkscape:window-height="1369"
     inkscape:window-x="1912"
     inkscape:window-y="-8"
     inkscape:window-maximized="1"
     inkscape:current-layer="g15"
     units="mm"
     height="243mm"
     inkscape:document-units="mm"
     inkscape:showpageshadow="2"
     inkscape:deskcolor="#505050"
     showguides="true"
     inkscape:export-bgcolor="#ffffff00" />
  <g
     inkscape:groupmode="layer"
     inkscape:label="Image"
     id="g15"
     style="display:inline">
    <rect
       style="fill:#000000;stroke-width:1.00001"
       id="rect34"
       width="5570.4521"
       height="4076.2605"
       x="1504.2406"
       y="-3264.071"
       inkscape:export-filename="G:\Shared drives\ORGM - ADM\ADMINISTRACIÓN\LOGO\GRUPO GERENCIA.png"
       inkscape:export-xdpi="96"
       inkscape:export-ydpi="96"
       transform="scale(-1,1)" />
    <rect
       style="fill:url(#linearGradient277);fill-opacity:1;fill-rule:evenodd"
       id="rect159"
       width="1998.7991"
       height="563.5957"
       x="203.15619"
       y="176.94225"
       inkscape:export-filename="..\..\..\Users\osmar\OneDrive\Escritorio\LOGO LEMA W.png"
       inkscape:export-xdpi="300"
       inkscape:export-ydpi="300" />
    <path
       style="fill:#000000;stroke-width:0.81287"
       d="m 6.1292422,893.60473 c 0,-4.4998 0.3606,-16.1137 0.8014,-25.8086 1.4176,-31.181 3.2125998,-73.91067 4.0868998,-97.28857 0.4682,-12.5182 1.3808,-35.0144 2.0281,-49.9915 0.6472,-14.9772 1.5569,-37.1076 2.0214,-49.1787 0.7944,-20.6419 2.4903,-62.8769 5.2716,-131.2786 0.6635,-16.3183 1.411,-35.1566 1.6612,-41.8628 0.2502,-6.7062 1.5296,-38.1643 2.8432,-69.9068 1.3136,-31.7426 2.9527,-72.3455 3.6426,-90.2287 0.6898,-17.8831 1.6161,-40.928 2.0585,-51.2108 0.4423,-10.2828 1.3458,-32.4132 2.0076,-49.1787 1.6252,-41.1676 2.7973,-51.3165 8.1965,-70.9691 6.9873,-25.4337 13.8514,-40.6396 28.6918,-63.5609 21.6928,-33.504905 58.110698,-63.052105 96.011798,-77.897805 18.2136,-7.1342 36.1422,-11.7928 53.4124,-13.879 9.7799,-1.1813 108.0291,-1.2969 1102.45566,-1.2969 h 1091.7189 l -0.01,7.9255 c -0.01,4.359 -0.5411,19.9966 -1.1927,34.7502 -0.6517,14.7536 -1.5686,37.4327 -2.0377,50.398005 -0.469,12.9653 -1.2108,31.8035 -1.6483,41.8628 -0.4376,10.0593 -1.1672,28.7147 -1.6212,41.4564 -1.7753,49.8131 -19.5128,495.5928 -20.3444,511.2955 -2.5987,49.0719 -17.7697,89.7949 -47.0896,126.4013 -33.3021,41.57847 -84.344,69.75317 -138.35,76.36827 -9.2537,1.1335 -120.6212,1.2609 -1102.4556,1.2609 H 6.1292422 Z M 860.45614,601.83056 v -82.9192 l 48.56521,0.2096 48.5652,0.2096 50.96645,80.8806 c 28.0315,44.4844 51.0965,81.2102 51.2555,81.6129 0.1605,0.4063 16.7318,1.0131 37.2338,1.3632 20.3196,0.3469 45.6481,0.8531 56.2856,1.1247 l 19.3407,0.494 -4.0918,-5.515 c -2.2505,-3.0332 -12.3913,-17.2203 -22.535,-31.5268 -10.1437,-14.3066 -31.1258,-43.7528 -46.6268,-65.4361 -36.9053,-51.6242 -50.501,-70.8763 -50.2068,-71.0954 0.1321,-0.098 3.1667,-1.7708 6.7433,-3.7163 25.6046,-13.9278 48.8108,-37.9573 62.3822,-64.5956 11.2461,-22.0744 15.9121,-40.6739 16.6194,-66.2489 0.6044,-21.8536 -0.9332,-33.3227 -7.2294,-53.9278 -3.1558,-10.3276 -13.7684,-31.3706 -20.6606,-40.9663 -18.2558,-25.4166 -44.0319,-45.5336 -71.1582,-55.5354 l -6.4826,-2.3902 H 896.97985 764.53744 v 44.7079 44.7079 l 132.70101,4e-4 132.70115,5e-4 4.4913,5.08 c 9.9116,11.2107 14.7835,19.7052 18.2983,31.9047 8.1478,28.2792 0.9114,57.7251 -19.427,79.0516 l -3.2946,3.4547 H 897.27245 764.53744 v 125.995 125.9949 h 47.9593 47.9594 z m 947.80696,-0.8065 v -83.7256 l -48.569,-10e-5 h -48.569 l 0.2108,83.7257 0.2108,83.7257 h 48.3582 48.3582 z m 347.0957,-146.7231 v -230.4488 l -48.569,0.047 -48.569,0.047 -31.4174,48.5222 c -71.7051,110.744 -83.0411,128.2143 -83.604,128.8446 -0.4414,0.4942 -89.3581,-135.5483 -112.5823,-172.2508 l -3.2515,-5.1385 -62.0432,-0.036 -62.0432,-0.036 1.7155,2.2354 c 5.5556,7.2393 9.8875,12.9941 21.7443,28.8874 7.267,9.7407 15.9559,21.2631 19.3086,25.6054 3.3528,4.3422 13.888,18.3201 23.4117,31.0618 9.5237,12.7417 27.7181,36.884 40.432,53.6494 12.714,16.7655 25.6877,33.95 28.8304,38.1879 3.1428,4.2379 15.3577,20.5156 27.1442,36.1727 76.4143,101.5081 76.8408,102.062 77.7983,101.0231 0.5186,-0.5626 26.1025,-39.0653 56.853,-85.5615 30.7507,-46.4962 56.4052,-85.0741 57.0101,-85.7288 0.9249,-1.0009 1.0999,23.9887 1.0999,157.0872 v 158.2775 h 48.3658 48.3658 z M 444.26644,640.10916 v -43.8276 l -3.8611,-0.8166 c -2.1237,-0.4491 -5.3244,-1.066 -7.1127,-1.3708 -9.9018,-1.6879 -30.3111,-9.5807 -41.398,-16.0099 -30.068,-17.4361 -52.516,-44.6247 -63.7548,-77.2185 -9.7801,-28.3633 -10.2195,-61.4631 -1.1902,-89.6469 12.6662,-39.5358 42.0951,-71.931 79.99,-88.0527 8.4943,-3.6138 21.2116,-7.7944 26.353,-8.6632 1.7883,-0.3021 4.989,-0.9169 7.1127,-1.366 l 3.8611,-0.8166 v -43.9158 -43.9157 l -1.829,0.4319 c -1.0059,0.2375 -4.7553,0.6803 -8.3319,0.9838 -7.8106,0.6629 -24.4324,4.1642 -36.6346,7.7168 -27.9773,8.1456 -58.5652,24.2597 -80.0123,42.1514 -7.4368,6.2039 -23.3991,22.0255 -29.6278,29.3665 -29.7062,35.0112 -47.0612,74.6222 -53.4221,121.9305 -0.5992,4.4561 -1.0383,15.9738 -1.0383,27.2312 0,25.5391 2.6361,44.6233 9.0388,65.4361 12.5347,40.7458 30.6112,70.4868 60.533,99.5944 11.6718,11.3543 16.2635,15.2765 26.303,22.4676 33.1761,23.7636 72.1206,38.1255 114.0051,42.0428 0.8015,0.075 1.0161,-9.1617 1.0161,-43.7327 z m 957.56146,-0.013 c 0,-41.051 -0.091,-43.8668 -1.4225,-44.2592 -0.7824,-0.2305 -3.8002,-0.8187 -6.7062,-1.3072 -21.2578,-3.5733 -48.0293,-16.8 -65.7573,-32.488 -28.4769,-25.2 -44.5796,-56.3721 -48.7996,-94.4674 -1.1588,-10.4613 -1.0888,-17.0171 0.3067,-28.7184 4.4034,-36.9219 20.517,-67.5955 48.4841,-92.2936 17.7875,-15.7085 43.5893,-28.4332 65.7661,-32.4343 2.906,-0.5242 5.9238,-1.1399 6.7062,-1.3681 1.3321,-0.3885 1.4225,-3.2051 1.4225,-44.3099 0,-41.4192 -0.081,-43.8718 -1.4225,-43.4845 -0.7824,0.2257 -4.3489,0.6525 -7.9255,0.9483 -21.2446,1.7573 -50.946,10.8978 -75.0686,23.1021 -21.6039,10.9299 -36.676,21.7464 -56.6164,40.6307 -27.4234,25.9708 -50.0783,63.6367 -60.4387,100.485 -6.2806,22.338 -8.2656,35.7034 -8.806,59.2917 -0.4587,20.0221 0.8052,34.3358 4.6708,52.8996 6.3145,30.3243 20.7796,62.9166 38.5741,86.9141 24.4825,33.0165 49.0728,53.6472 85.6462,71.8545 25.116,12.5036 51.3011,19.9143 80.3705,22.7459 0.8016,0.078 1.0161,-9.1582 1.0161,-43.7413 z m -904.10646,41.758 c 33.1158,-5.3103 62.0908,-15.9958 87.578,-32.2973 34.5279,-22.0839 59.6705,-48.6318 79.0675,-83.4866 16.7647,-30.1248 25.8159,-60.7791 28.6815,-97.138 3.2485,-41.2157 -7.1224,-87.1124 -28.5916,-126.5336 -17.6664,-32.4386 -45.3102,-61.8565 -77.0332,-81.9773 -15.4284,-9.7857 -37.9786,-20.3646 -53.6894,-25.1872 -15.6477,-4.8031 -38.3623,-9.7296 -44.9632,-9.7518 -1.3372,0 -1.4225,2.6248 -1.4225,43.8747 v 43.8795 l 2.2354,0.5088 c 23.7759,5.412 40.152,12.6291 58.6026,25.8267 8.8295,6.3157 23.7011,21.1295 29.5226,29.4079 5.8158,8.2703 13.4505,20.864 15.5042,25.5746 2.8775,6.6002 7.7206,21.4001 9.4431,28.8569 6.714,29.0665 3.3264,62.2403 -9.1059,89.1721 -15.4547,33.4787 -40.0298,57.8782 -72.8743,72.3535 -8.1885,3.6088 -21.6519,8.0818 -27.6376,9.1821 -6.3075,1.1594 -5.6901,-3.7409 -5.6901,45.1642 0,38.566 0.1478,43.8402 1.2281,43.8402 0.6754,0 4.7906,-0.5713 9.1448,-1.2694 z m 958.66166,0.076 c 40.25,-5.6501 82.7879,-25.0066 114.1154,-51.9273 18.5365,-15.9289 38.2391,-39.0923 48.5031,-57.0228 20.949,-36.5961 30.5462,-69.3094 32.7905,-111.7697 0.4808,-9.0953 -0.393,-27.9146 -1.7266,-37.1888 l -0.4967,-3.4547 h -118.9932 -118.9933 v 39.4242 39.4242 h 72.7519 c 40.0136,0 72.752,0.1734 72.752,0.3853 0,1.0438 -5.2443,13.3867 -8.1064,19.0791 -5.7577,11.4515 -14.6956,24.3658 -22.7187,32.8263 -5.507,5.8072 -18.4179,16.8454 -24.4422,20.8968 -12.5795,8.4601 -35.3253,18.375 -48.3737,21.0862 -2.2354,0.4645 -4.8874,1.0316 -5.8933,1.2603 l -1.829,0.4157 v 43.8795 c 0,35.9019 0.196,43.8795 1.0778,43.8795 0.5928,0 4.9049,-0.5372 9.5824,-1.1938 z m 178.7866,-314.0813 c -13.1697,-32.567 -35.4409,-63.7166 -62.2326,-87.0415 -28.7684,-25.0458 -59.5408,-40.7786 -99.4247,-50.832 -7.4562,-1.8795 -22.5316,-4.4424 -26.367,-4.4825 -1.3374,-0.014 -1.4225,2.6101 -1.4225,43.8488 v 43.8636 l 3.0483,0.7774 c 1.6765,0.4276 4.3285,1.016 5.8933,1.3075 8.4682,1.5778 29.2575,9.9029 38.2049,15.2992 17.5529,10.5864 34.111,25.4621 43.853,39.3975 l 5.2418,7.4979 h 48.5511 48.551 z"
       id="path117"
       inkscape:export-filename="G:\Shared drives\ORGM - ADM\ADMINISTRACIÓN\LOGO\LOGO LEMA W.png"
       inkscape:export-xdpi="96"
       inkscape:export-ydpi="96" />
    <path
       style="display:inline;fill:#3471cd;stroke-width:0.81287;fill-opacity:1"
       d="m -75.412286,-22.868686 c 0,-4.4998 0.3606,-16.1137 0.8014,-25.8086 1.4176,-31.181 3.2126,-73.910674 4.0869,-97.288574 0.4682,-12.5182 1.3808,-35.0144 2.0281,-49.9915 0.6472,-14.9772 1.5569,-37.1076 2.0214,-49.1787 0.7944,-20.6419 2.4903,-62.8769 5.2716,-131.2786 0.6635,-16.3183 1.411,-35.1566 1.6612,-41.8628 0.2502,-6.7062 1.5296,-38.1643 2.8432,-69.9068 1.3136,-31.7426 2.9527,-72.3455 3.6426,-90.2287 0.6898,-17.8831 1.6161,-40.928 2.0585,-51.2108 0.4423,-10.2828 1.3458,-32.4132 2.0076,-49.1787 1.6252,-41.1676 2.7973,-51.3165 8.1965,-70.9691 6.9873,-25.4337 13.8514,-40.6396 28.6918,-63.5609 21.6928003,-33.5049 58.1107,-63.0521 96.0118,-77.8978 18.213596,-7.1342 36.142196,-11.7928 53.412396,-13.879 9.7799,-1.1813 108.0291,-1.2969 1102.45569,-1.2969 h 1091.7189 l -0.01,7.9255 c -0.01,4.359 -0.5411,19.9966 -1.1927,34.7502 -0.6517,14.7536 -1.5686,37.4327 -2.0377,50.398 -0.469,12.9653 -1.2108,31.8035 -1.6483,41.8628 -0.4376,10.0593 -1.1672,28.7147 -1.6212,41.4564 -1.7753,49.8131 -19.5128,495.5928 -20.3444,511.2955 -2.5987,49.0719 -17.7697,89.7949 -47.0896,126.401304 -33.3021,41.57847 -84.344,69.75317 -138.35,76.36827 -9.2537,1.1335 -120.6212,1.2609 -1102.4556,1.2609 H -75.412286 Z M 778.91461,-314.64286 v -82.9192 l 48.56521,0.2096 48.5652,0.2096 50.96645,80.8806 c 28.0315,44.4844 51.0965,81.2102 51.2555,81.6129 0.1605,0.4063 16.7318,1.0131 37.23383,1.3632 20.3196,0.3469 45.6481,0.8531 56.2856,1.1247 l 19.3407,0.494 -4.0918,-5.515 c -2.2505,-3.0332 -12.3913,-17.2203 -22.535,-31.5268 -10.1437,-14.3066 -31.1258,-43.7528 -46.6268,-65.4361 -36.90533,-51.6242 -50.50103,-70.8763 -50.20683,-71.0954 0.1321,-0.098 3.1667,-1.7708 6.7433,-3.7163 25.60463,-13.9278 48.81083,-37.9573 62.38223,-64.5956 11.2461,-22.0744 15.9121,-40.6739 16.6194,-66.2489 0.6044,-21.8536 -0.9332,-33.3227 -7.2294,-53.9278 -3.1558,-10.3276 -13.7684,-31.3706 -20.6606,-40.9663 -18.2558,-25.4166 -44.03193,-45.5336 -71.15823,-55.5354 l -6.4826,-2.3902 H 815.43832 682.99591 v 44.7079 44.7079 l 132.70101,4e-4 132.70115,5e-4 4.4913,5.08 c 9.9116,11.2107 14.7835,19.7052 18.2983,31.9047 8.1478,28.2792 0.9114,57.7251 -19.427,79.0516 l -3.2946,3.4547 H 815.73092 682.99591 v 125.995 125.9949 h 47.9593 47.9594 z m 947.80699,-0.8065 v -83.7256 l -48.569,-10e-5 h -48.569 l 0.2108,83.7257 0.2108,83.7257 h 48.3582 48.3582 z m 347.0957,-146.7231 v -230.4488 l -48.569,0.047 -48.569,0.047 -31.4174,48.5222 c -71.7051,110.744 -83.0411,128.2143 -83.604,128.8446 -0.4414,0.4942 -89.3581,-135.5483 -112.5823,-172.2508 l -3.2515,-5.1385 -62.0432,-0.036 -62.0432,-0.036 1.7155,2.2354 c 5.5556,7.2393 9.8875,12.9941 21.7443,28.8874 7.267,9.7407 15.9559,21.2631 19.3086,25.6054 3.3528,4.3422 13.888,18.3201 23.4117,31.0618 9.5237,12.7417 27.7181,36.884 40.432,53.6494 12.714,16.7655 25.6877,33.95 28.8304,38.1879 3.1428,4.2379 15.3577,20.5156 27.1442,36.1727 76.4143,101.5081 76.8408,102.062 77.7983,101.0231 0.5186,-0.5626 26.1025,-39.0653 56.853,-85.5615 30.7507,-46.4962 56.4052,-85.0741 57.0101,-85.7288 0.9249,-1.0009 1.0999,23.9887 1.0999,157.0872 v 158.2775 h 48.3658 48.3658 z m -1711.09239,185.8082 v -43.8276 l -3.8611,-0.8166 c -2.1237,-0.4491 -5.3244,-1.066 -7.1127,-1.3708 -9.9018,-1.6879 -30.3111,-9.5807 -41.398,-16.0099 -30.068,-17.4361 -52.516,-44.6247 -63.7548,-77.2185 -9.7801,-28.3633 -10.2195,-61.4631 -1.1902,-89.6469 12.6662,-39.5358 42.0951,-71.931 79.99,-88.0527 8.4943,-3.6138 21.2116,-7.7944 26.353,-8.6632 1.7883,-0.3021 4.989,-0.9169 7.1127,-1.366 l 3.8611,-0.8166 v -43.9158 -43.9157 l -1.829,0.4319 c -1.0059,0.2375 -4.7553,0.6803 -8.3319,0.9838 -7.8106,0.6629 -24.4324,4.1642 -36.6346,7.7168 -27.9773,8.1456 -58.5652,24.2597 -80.0123,42.1514 -7.4368,6.2039 -23.3991,22.0255 -29.6278,29.3665 -29.7062,35.0112 -47.0612,74.6222 -53.4221,121.9305 -0.5992,4.4561 -1.0383,15.9738 -1.0383,27.2312 0,25.5391 2.6361,44.6233 9.0388,65.4361 12.5347,40.7458 30.6112,70.4868 60.533,99.5944 11.6718,11.3543 16.2635,15.2765 26.303,22.4676 33.1761,23.7636 72.1206,38.1255 114.0051,42.0428 0.8015,0.075 1.0161,-9.1617 1.0161,-43.7327 z m 957.56149,-0.013 c 0,-41.051 -0.091,-43.8668 -1.4225,-44.2592 -0.7824,-0.2305 -3.8002,-0.8187 -6.7062,-1.3072 -21.2578,-3.5733 -48.0293,-16.8 -65.7573,-32.488 -28.4769,-25.2 -44.5796,-56.3721 -48.7996,-94.4674 -1.1588,-10.4613 -1.0888,-17.0171 0.3067,-28.7184 4.4034,-36.9219 20.517,-67.5955 48.4841,-92.2936 17.7875,-15.7085 43.5893,-28.4332 65.7661,-32.4343 2.906,-0.5242 5.9238,-1.1399 6.7062,-1.3681 1.3321,-0.3885 1.4225,-3.2051 1.4225,-44.3099 0,-41.4192 -0.081,-43.8718 -1.4225,-43.4845 -0.7824,0.2257 -4.3489,0.6525 -7.9255,0.9483 -21.2446,1.7573 -50.946,10.8978 -75.0686,23.1021 -21.6039,10.9299 -36.676,21.7464 -56.6164,40.6307 -27.4234,25.9708 -50.0783,63.6367 -60.4387,100.485 -6.2806,22.338 -8.2656,35.7034 -8.806,59.2917 -0.4587,20.0221 0.8052,34.3358 4.6708,52.8996 6.3145,30.3243 20.7796,62.9166 38.5741,86.9141 24.4825,33.0165 49.0728,53.6472 85.6462,71.8545 25.116,12.5036 51.3011,19.9143 80.3705,22.7459 0.8016,0.078 1.0161,-9.1582 1.0161,-43.7413 z m -904.10649,41.758 c 33.1158,-5.3103 62.0908,-15.9958 87.578,-32.2973 34.5279,-22.0839 59.6705,-48.6318 79.0675,-83.4866 16.7647,-30.1248 25.8159,-60.7791 28.6815,-97.138 3.2485,-41.2157 -7.1224,-87.1124 -28.5916,-126.5336 -17.6664,-32.4386 -45.3102,-61.8565 -77.0332,-81.9773 -15.4284,-9.7857 -37.9786,-20.3646 -53.6894,-25.1872 -15.6477,-4.8031 -38.3623,-9.7296 -44.9632,-9.7518 -1.3372,0 -1.4225,2.6248 -1.4225,43.8747 v 43.8795 l 2.2354,0.5088 c 23.7759,5.412 40.152,12.6291 58.6026,25.8267 8.8295,6.3157 23.7011,21.1295 29.5226,29.4079 5.8158,8.2703 13.4505,20.864 15.5042,25.5746 2.8775,6.6002 7.7206,21.4001 9.4431,28.8569 6.714,29.0665 3.3264,62.2403 -9.1059,89.1721 -15.4547,33.4787 -40.0298,57.8782 -72.8743,72.3535 -8.1885,3.6088 -21.6519,8.0818 -27.6376,9.1821 -6.3075,1.1594 -5.6901,-3.7409 -5.6901,45.1642 0,38.566 0.1478,43.8402 1.2281,43.8402 0.6754,0 4.7906,-0.5713 9.1448,-1.2694 z m 958.66169,0.076 c 40.25,-5.6501 82.7879,-25.0066 114.1154,-51.9273 18.5365,-15.9289 38.2391,-39.0923 48.5031,-57.0228 20.949,-36.5961 30.5462,-69.3094 32.7905,-111.7697 0.4808,-9.0953 -0.393,-27.9146 -1.7266,-37.1888 l -0.4967,-3.4547 h -118.9932 -118.9933 v 39.4242 39.4242 h 72.7519 c 40.0136,0 72.752,0.1734 72.752,0.3853 0,1.0438 -5.2443,13.3867 -8.1064,19.0791 -5.7577,11.4515 -14.6956,24.3658 -22.7187,32.8263 -5.507,5.8072 -18.4179,16.8454 -24.4422,20.8968 -12.5795,8.4601 -35.3253,18.375 -48.3737,21.0862 -2.2354,0.4645 -4.8874,1.0316 -5.8933,1.2603 l -1.829,0.4157 v 43.8795 c 0,35.9019 0.196,43.8795 1.0778,43.8795 0.5928,0 4.9049,-0.5372 9.5824,-1.1938 z m 178.7866,-314.0813 c -13.1697,-32.567 -35.4409,-63.7166 -62.2326,-87.0415 -28.7684,-25.0458 -59.5408,-40.7786 -99.4247,-50.832 -7.4562,-1.8795 -22.5316,-4.4424 -26.367,-4.4825 -1.3374,-0.014 -1.4225,2.6101 -1.4225,43.8488 v 43.8636 l 3.0483,0.7774 c 1.6765,0.4276 4.3285,1.016 5.8933,1.3075 8.4682,1.5778 29.2575,9.9029 38.2049,15.2992 17.5529,10.5864 34.111,25.4621 43.853,39.3975 l 5.2418,7.4979 h 48.5511 48.551 z"
       id="path117-1"
       inkscape:export-filename="G:\Shared drives\ORGM - ADM\ADMINISTRACIÓN\LOGO\LOGO LEMA W.png"
       inkscape:export-xdpi="96"
       inkscape:export-ydpi="96" />
    <rect
       style="fill:url(#linearGradient513);fill-opacity:1;fill-rule:evenodd"
       id="rect159-4"
       width="1998.7991"
       height="563.5957"
       x="-5361.9795"
       y="-1866.7064"
       inkscape:export-filename="G:\Shared drives\ORGM - ADM\ADMINISTRACIÓN\LOGO\GRUPO GERENCIA.png"
       inkscape:export-xdpi="96"
       inkscape:export-ydpi="96" />
    <path
       style="fill:#000000;stroke-width:0.81287"
       d="m -5559.0063,-1150.0439 c 0,-4.4998 0.3606,-16.1137 0.8014,-25.8086 1.4176,-31.181 3.2126,-73.9107 4.0869,-97.2886 0.4682,-12.5182 1.3808,-35.0145 2.0281,-49.9916 0.6472,-14.9772 1.5569,-37.1076 2.0214,-49.1787 0.7944,-20.6419 2.4903,-62.8769 5.2716,-131.2786 0.6635,-16.3183 1.411,-35.1566 1.6612,-41.8628 0.2502,-6.7062 1.5296,-38.1643 2.8432,-69.9068 1.3136,-31.7426 2.9527,-72.3455 3.6426,-90.2287 0.6898,-17.8831 1.6161,-40.928 2.0585,-51.2108 0.4423,-10.2828 1.3458,-32.4132 2.0076,-49.1787 1.6252,-41.1676 2.7973,-51.3165 8.1965,-70.9691 6.9873,-25.4337 13.8514,-40.6396 28.6918,-63.5609 21.6928,-33.5049 58.1107,-63.0521 96.0118,-77.8978 18.2136,-7.1342 36.1422,-11.7928 53.4124,-13.879 9.7799,-1.1813 108.0291,-1.2969 1102.4557,-1.2969 h 1091.7188 l -0.01,7.9255 c -0.01,4.359 -0.5411,19.9966 -1.1927,34.7502 -0.6517,14.7536 -1.5686,37.4327 -2.0377,50.398 -0.469,12.9653 -1.2108,31.8035 -1.6483,41.8628 -0.4376,10.0593 -1.1672,28.7147 -1.6212,41.4564 -1.7753,49.8131 -19.5128,495.5928 -20.3444,511.2955 -2.5987,49.0719 -17.7697,89.795 -47.0896,126.4014 -33.302,41.5785 -84.3439,69.7532 -138.3499,76.3683 -9.2537,1.1335 -120.6212,1.2609 -1102.4556,1.2609 h -1092.1601 z m 854.327,-291.7743 v -82.9192 l 48.5652,0.2096 48.5652,0.2096 50.9664,80.8806 c 28.0315,44.4844 51.0965,81.2102 51.2555,81.6129 0.1605,0.4063 16.7318,1.0131 37.2338,1.3632 20.3196,0.3469 45.6481,0.8531 56.2856,1.1247 l 19.3407,0.494 -4.0918,-5.515 c -2.2505,-3.0332 -12.3913,-17.2203 -22.535,-31.5268 -10.1437,-14.3066 -31.1258,-43.7528 -46.6268,-65.4361 -36.9053,-51.6242 -50.501,-70.8763 -50.2068,-71.0954 0.1321,-0.098 3.1667,-1.7708 6.7433,-3.7163 25.6046,-13.9278 48.8108,-37.9573 62.3822,-64.5956 11.2461,-22.0744 15.9121,-40.6739 16.6194,-66.2489 0.6044,-21.8536 -0.9332,-33.3227 -7.2294,-53.9278 -3.1558,-10.3276 -13.7684,-31.3706 -20.6606,-40.9663 -18.2558,-25.4166 -44.0319,-45.5336 -71.1582,-55.5354 l -6.4826,-2.3902 h -132.4424 -132.4424 v 44.7079 44.7079 l 132.701,4e-4 132.7011,5e-4 4.4913,5.08 c 9.9116,11.2107 14.7835,19.7052 18.2983,31.9047 8.1478,28.2792 0.9114,57.7251 -19.427,79.0516 l -3.2946,3.4547 h -132.7351 -132.735 v 125.995 125.9949 h 47.9593 47.9594 z m 947.8069,-0.8065 v -83.7256 l -48.569,-10e-5 h -48.569 l 0.2108,83.7257 0.2108,83.7257 h 48.3582 48.3582 z m 347.0957,-146.7231 v -230.4488 l -48.569,0.047 -48.569,0.047 -31.4174,48.5222 c -71.7051,110.744 -83.0411,128.2143 -83.604,128.8446 -0.4414,0.4942 -89.3581,-135.5483 -112.5823,-172.2508 l -3.2515,-5.1385 -62.0432,-0.036 -62.0432,-0.036 1.7155,2.2354 c 5.5556,7.2393 9.8875,12.9941 21.7443,28.8874 7.267,9.7407 15.9559,21.2631 19.3086,25.6054 3.3528,4.3422 13.888,18.3201 23.4117,31.0618 9.5237,12.7417 27.7181,36.884 40.432,53.6494 12.714,16.7655 25.6877,33.95 28.8304,38.1879 3.1428,4.2379 15.3577,20.5156 27.1442,36.1727 76.4143,101.5081 76.8408,102.062 77.7983,101.0231 0.5186,-0.5626 26.1025,-39.0653 56.853,-85.5615 30.7507,-46.4962 56.4052,-85.0741 57.0101,-85.7288 0.9249,-1.0009 1.0999,23.9887 1.0999,157.0872 v 158.2775 h 48.3658 48.3658 z m -1711.0923,185.8082 v -43.8276 l -3.8611,-0.8166 c -2.1237,-0.4491 -5.3244,-1.066 -7.1127,-1.3708 -9.9018,-1.6879 -30.3111,-9.5807 -41.398,-16.0099 -30.068,-17.4361 -52.516,-44.6247 -63.7549,-77.2185 -9.7801,-28.3633 -10.2195,-61.4631 -1.1902,-89.6469 12.6663,-39.5358 42.0952,-71.931 79.9901,-88.0527 8.4943,-3.6138 21.2116,-7.7944 26.353,-8.6632 1.7883,-0.3021 4.989,-0.9169 7.1127,-1.366 l 3.8611,-0.8166 v -43.9158 -43.9157 l -1.829,0.4319 c -1.0059,0.2375 -4.7553,0.6803 -8.3319,0.9838 -7.8106,0.6629 -24.4324,4.1642 -36.6346,7.7168 -27.9773,8.1456 -58.5652,24.2597 -80.0124,42.1514 -7.4368,6.2039 -23.3991,22.0255 -29.6278,29.3665 -29.7062,35.0112 -47.0612,74.6222 -53.4221,121.9305 -0.5992,4.4561 -1.0383,15.9738 -1.0383,27.2312 0,25.5391 2.6361,44.6233 9.0388,65.4361 12.5347,40.7458 30.6112,70.4868 60.533,99.5944 11.6718,11.3543 16.2635,15.2765 26.303,22.4676 33.1762,23.7636 72.1207,38.1255 114.0052,42.0428 0.8015,0.075 1.0161,-9.1617 1.0161,-43.7327 z m 957.5614,-0.013 c 0,-41.051 -0.091,-43.8668 -1.4225,-44.2592 -0.7824,-0.2305 -3.8002,-0.8187 -6.7062,-1.3072 -21.2578,-3.5733 -48.0293,-16.8 -65.7573,-32.488 -28.4769,-25.2 -44.5796,-56.3721 -48.7996,-94.4674 -1.1588,-10.4613 -1.0888,-17.0171 0.3067,-28.7184 4.4034,-36.9219 20.517,-67.5955 48.4841,-92.2936 17.7875,-15.7085 43.5893,-28.4332 65.7661,-32.4343 2.906,-0.5242 5.9238,-1.1399 6.7062,-1.3681 1.3321,-0.3885 1.4225,-3.2051 1.4225,-44.3099 0,-41.4192 -0.081,-43.8718 -1.4225,-43.4845 -0.7824,0.2257 -4.3489,0.6525 -7.9255,0.9483 -21.2446,1.7573 -50.946,10.8978 -75.0686,23.1021 -21.6039,10.9299 -36.676,21.7464 -56.6164,40.6307 -27.4234,25.9708 -50.0783,63.6367 -60.4387,100.485 -6.2806,22.338 -8.2656,35.7034 -8.806,59.2917 -0.4587,20.0221 0.8052,34.3358 4.6708,52.8996 6.3145,30.3243 20.7796,62.9166 38.5741,86.9141 24.4825,33.0165 49.0728,53.6472 85.6462,71.8545 25.116,12.5036 51.3011,19.9143 80.3705,22.7459 0.8016,0.078 1.0161,-9.1582 1.0161,-43.7413 z m -904.1064,41.758 c 33.1158,-5.3103 62.0908,-15.9958 87.578,-32.2973 34.5279,-22.0839 59.6705,-48.6318 79.0675,-83.4866 16.7647,-30.1248 25.8159,-60.7791 28.6815,-97.138 3.2485,-41.2157 -7.1224,-87.1124 -28.5916,-126.5336 -17.6664,-32.4386 -45.3102,-61.8565 -77.0332,-81.9773 -15.4284,-9.7857 -37.9786,-20.3646 -53.6894,-25.1872 -15.6477,-4.8031 -38.3623,-9.7296 -44.9632,-9.7518 -1.3372,0 -1.4225,2.6248 -1.4225,43.8747 v 43.8795 l 2.2354,0.5088 c 23.7759,5.412 40.152,12.6291 58.6026,25.8267 8.8295,6.3157 23.7011,21.1295 29.5226,29.4079 5.8158,8.2703 13.4505,20.864 15.5042,25.5746 2.8775,6.6002 7.7206,21.4001 9.4431,28.8569 6.714,29.0665 3.3264,62.2403 -9.1059,89.1721 -15.4547,33.4787 -40.0298,57.8782 -72.8743,72.3535 -8.1885,3.6088 -21.6519,8.0818 -27.6376,9.1821 -6.3075,1.1594 -5.6901,-3.7409 -5.6901,45.1642 0,38.566 0.1478,43.8402 1.2281,43.8402 0.6754,0 4.7906,-0.5713 9.1448,-1.2694 z m 958.6616,0.076 c 40.25,-5.6501 82.7879,-25.0066 114.1154,-51.9273 18.5365,-15.9289 38.2391,-39.0923 48.5031,-57.0228 20.949,-36.5961 30.5462,-69.3094 32.7905,-111.7697 0.4808,-9.0953 -0.393,-27.9146 -1.7266,-37.1888 l -0.4967,-3.4547 h -118.9932 -118.9933 v 39.4242 39.4242 h 72.7519 c 40.0136,0 72.752,0.1734 72.752,0.3853 0,1.0438 -5.2443,13.3867 -8.1064,19.0791 -5.7577,11.4515 -14.6956,24.3658 -22.7187,32.8263 -5.507,5.8072 -18.4179,16.8454 -24.4422,20.8968 -12.5795,8.4601 -35.3253,18.375 -48.3737,21.0862 -2.2354,0.4645 -4.8874,1.0316 -5.8933,1.2603 l -1.829,0.4157 v 43.8795 c 0,35.9019 0.196,43.8795 1.0778,43.8795 0.5928,0 4.9049,-0.5372 9.5824,-1.1938 z m 178.7866,-314.0813 c -13.1697,-32.567 -35.4409,-63.7166 -62.2326,-87.0415 -28.7684,-25.0458 -59.5408,-40.7786 -99.4247,-50.832 -7.4562,-1.8795 -22.5316,-4.4424 -26.367,-4.4825 -1.3374,-0.014 -1.4225,2.6101 -1.4225,43.8488 v 43.8636 l 3.0483,0.7774 c 1.6765,0.4276 4.3285,1.016 5.8933,1.3075 8.4682,1.5778 29.2575,9.9029 38.2049,15.2992 17.5529,10.5864 34.111,25.4621 43.853,39.3975 l 5.2418,7.4979 h 48.5511 48.551 z"
       id="path117-7"
       inkscape:export-filename="G:\Shared drives\ORGM - ADM\ADMINISTRACIÓN\LOGO\GRUPO GERENCIA.png"
       inkscape:export-xdpi="96"
       inkscape:export-ydpi="96" />
    <text
       xml:space="preserve"
       transform="matrix(1.0000052,0,0,1.0000052,-0.00632588,0)"
       id="text959"
       style="font-style:normal;font-variant:normal;font-weight:bold;font-stretch:normal;font-size:40px;line-height:1.25;font-family:Tahoma;-inkscape-font-specification:'Tahoma Bold';white-space:pre;shape-inside:url(#rect961);display:inline;fill:#000000;fill-opacity:1;stroke:none" />
    <text
       xml:space="preserve"
       transform="matrix(1.5308179,0,0,1.5308179,-1080.024,-435.84494)"
       id="text7653"
       style="font-style:normal;font-variant:normal;font-weight:bold;font-stretch:normal;font-size:125.424px;line-height:0;font-family:Tahoma;-inkscape-font-specification:'Tahoma Bold';white-space:pre;shape-inside:url(#rect7655);display:inline;fill:#000000;fill-opacity:1;stroke:none"
       inkscape:export-filename="G:\Shared drives\ORGM - ADM\ADMINISTRACIÓN\LOGO\LOGO LEMA W.png"
       inkscape:export-xdpi="96"
       inkscape:export-ydpi="96"><tspan
         x="797.04492"
         y="959.96201"
         id="tspan2019"><tspan
           style="font-weight:normal;font-size:69.6798px;line-height:1.25;font-family:Roboto;-inkscape-font-specification:Roboto"
           id="tspan2017">DESARROLLO DE INGENIERÍA Y PROYECTOS</tspan></tspan></text>
    <text
       xml:space="preserve"
       transform="matrix(1.5308179,0,0,1.5308179,-6577.1698,-2501.4529)"
       id="text7653-2"
       style="font-style:normal;font-variant:normal;font-weight:bold;font-stretch:normal;font-size:125.424px;line-height:1.25;font-family:Tahoma;-inkscape-font-specification:'Tahoma Bold';white-space:pre;shape-inside:url(#rect7655-0);display:inline;fill:#ffffff;fill-opacity:1;stroke:none"
       inkscape:export-filename="G:\Shared drives\ORGM - ADM\ADMINISTRACIÓN\LOGO\GRUPO GERENCIA.png"
       inkscape:export-xdpi="96"
       inkscape:export-ydpi="96"
       x="623.02594"
       y="0"><tspan
         x="797.04492"
         y="1013.4203"
         id="tspan2021">GERENCIA GENERAL</tspan></text>
    <rect
       style="fill:url(#linearGradient277-6);fill-opacity:1;fill-rule:evenodd"
       id="rect159-1"
       width="1998.7991"
       height="563.5957"
       x="193.13393"
       y="1395.8799"
       inkscape:export-filename="LOGO LEMA EN.png"
       inkscape:export-xdpi="96"
       inkscape:export-ydpi="96" />
    <path
       style="fill:#000000;stroke-width:0.81287"
       d="m -3.893028,2112.5424 c 0,-4.4998 0.3606,-16.1137 0.8014,-25.8086 1.4176,-31.181 3.21260005,-73.9106 4.08690005,-97.2885 0.46819995,-12.5182 1.38079995,-35.0144 2.02809995,-49.9915 0.6472,-14.9772 1.5569,-37.1076 2.0214,-49.1787 0.7944,-20.6419 2.4903,-62.8769 5.2716,-131.2786 0.6635,-16.3183 1.411,-35.1566 1.6612,-41.8628 0.2502,-6.7062 1.5296,-38.1643 2.8432,-69.9068 1.3136,-31.7426 2.9527,-72.3455 3.6426,-90.2287 0.6898,-17.8831 1.6161,-40.928 2.0585,-51.2108 0.4423,-10.2828 1.3458,-32.4132 2.0076,-49.1787 1.6252,-41.1676 2.7973,-51.3165 8.1965,-70.9691 6.9873,-25.4337 13.8514,-40.6396 28.6918,-63.5609 21.6928,-33.5049 58.110698,-63.0521 96.011798,-77.8978 18.2136,-7.1342 36.1422,-11.7928 53.4124,-13.879 9.7799,-1.1813 108.0291,-1.2969 1102.45563,-1.2969 h 1091.7189 l -0.01,7.9255 c -0.01,4.359 -0.5411,19.9966 -1.1927,34.7502 -0.6517,14.7536 -1.5686,37.4327 -2.0377,50.398 -0.469,12.9653 -1.2108,31.8035 -1.6483,41.8628 -0.4376,10.0593 -1.1672,28.7147 -1.6212,41.4564 -1.7753,49.8131 -19.5128,495.5928 -20.3444,511.2955 -2.5987,49.0719 -17.7697,89.7949 -47.0896,126.4013 -33.3021,41.5784 -84.344,69.7531 -138.35,76.3682 -9.2537,1.1335 -120.6212,1.2609 -1102.4556,1.2609 H -3.893028 Z M 850.43387,1820.7683 v -82.9192 l 48.56521,0.2096 48.5652,0.2096 50.96645,80.8806 c 28.03147,44.4844 51.09647,81.2102 51.25547,81.6129 0.1605,0.4063 16.7318,1.0131 37.2338,1.3632 20.3196,0.3469 45.6481,0.8531 56.2856,1.1247 l 19.3407,0.494 -4.0918,-5.515 c -2.2505,-3.0332 -12.3913,-17.2203 -22.535,-31.5268 -10.1437,-14.3066 -31.1258,-43.7528 -46.6268,-65.4361 -36.9053,-51.6242 -50.501,-70.8763 -50.2068,-71.0954 0.1321,-0.098 3.1667,-1.7708 6.7433,-3.7163 25.6046,-13.9278 48.8108,-37.9573 62.3822,-64.5956 11.2461,-22.0744 15.9121,-40.6739 16.6194,-66.2489 0.6044,-21.8536 -0.9332,-33.3227 -7.2294,-53.9278 -3.1558,-10.3276 -13.7684,-31.3706 -20.6606,-40.9663 -18.2558,-25.4166 -44.0319,-45.5336 -71.1582,-55.5354 l -6.4826,-2.3902 H 886.95758 754.51517 v 44.7079 44.7079 l 132.70101,4e-4 132.70112,5e-4 4.4913,5.08 c 9.9116,11.2107 14.7835,19.7052 18.2983,31.9047 8.1478,28.2792 0.9114,57.7251 -19.427,79.0516 l -3.2946,3.4547 H 887.25018 754.51517 v 125.995 125.9949 h 47.9593 47.9594 z m 947.80693,-0.8065 v -83.7256 l -48.569,-10e-5 h -48.569 l 0.2108,83.7257 0.2108,83.7257 h 48.3582 48.3582 z m 347.0957,-146.7231 v -230.4488 l -48.569,0.047 -48.569,0.047 -31.4174,48.5222 c -71.7051,110.744 -83.0411,128.2143 -83.604,128.8446 -0.4414,0.4942 -89.3581,-135.5483 -112.5823,-172.2508 l -3.2515,-5.1385 -62.0432,-0.036 -62.0432,-0.036 1.7155,2.2354 c 5.5556,7.2393 9.8875,12.9941 21.7443,28.8874 7.267,9.7407 15.9559,21.2631 19.3086,25.6054 3.3528,4.3422 13.888,18.3201 23.4117,31.0618 9.5237,12.7417 27.7181,36.884 40.432,53.6494 12.714,16.7655 25.6877,33.95 28.8304,38.1879 3.1428,4.2379 15.3577,20.5156 27.1442,36.1727 76.4143,101.5081 76.8408,102.062 77.7983,101.0231 0.5186,-0.5626 26.1025,-39.0653 56.853,-85.5615 30.7507,-46.4962 56.4052,-85.0741 57.0101,-85.7288 0.9249,-1.0009 1.0999,23.9887 1.0999,157.0872 v 158.2775 h 48.3658 48.3658 z M 434.24417,1859.0469 v -43.8276 l -3.8611,-0.8166 c -2.1237,-0.4491 -5.3244,-1.066 -7.1127,-1.3708 -9.9018,-1.6879 -30.3111,-9.5807 -41.398,-16.0099 -30.068,-17.4361 -52.516,-44.6247 -63.7548,-77.2185 -9.7801,-28.3633 -10.2195,-61.4631 -1.1902,-89.6469 12.6662,-39.5358 42.0951,-71.931 79.99,-88.0527 8.4943,-3.6138 21.2116,-7.7944 26.353,-8.6632 1.7883,-0.3021 4.989,-0.9169 7.1127,-1.366 l 3.8611,-0.8166 v -43.9158 -43.9157 l -1.829,0.4319 c -1.0059,0.2375 -4.7553,0.6803 -8.3319,0.9838 -7.8106,0.6629 -24.4324,4.1642 -36.6346,7.7168 -27.9773,8.1456 -58.5652,24.2597 -80.0123,42.1514 -7.4368,6.2039 -23.3991,22.0255 -29.6278,29.3665 -29.7062,35.0112 -47.0612,74.6222 -53.4221,121.9305 -0.5992,4.4561 -1.0383,15.9738 -1.0383,27.2312 0,25.5391 2.6361,44.6233 9.0388,65.4361 12.5347,40.7458 30.6112,70.4868 60.533,99.5944 11.6718,11.3543 16.2635,15.2765 26.303,22.4676 33.1761,23.7636 72.1206,38.1255 114.0051,42.0428 0.8015,0.075 1.0161,-9.1617 1.0161,-43.7327 z m 957.56143,-0.013 c 0,-41.051 -0.091,-43.8668 -1.4225,-44.2592 -0.7824,-0.2305 -3.8002,-0.8187 -6.7062,-1.3072 -21.2578,-3.5733 -48.0293,-16.8 -65.7573,-32.488 -28.4769,-25.2 -44.5796,-56.3721 -48.7996,-94.4674 -1.1588,-10.4613 -1.0888,-17.0171 0.3067,-28.7184 4.4034,-36.9219 20.517,-67.5955 48.4841,-92.2936 17.7875,-15.7085 43.5893,-28.4332 65.7661,-32.4343 2.906,-0.5242 5.9238,-1.1399 6.7062,-1.3681 1.3321,-0.3885 1.4225,-3.2051 1.4225,-44.3099 0,-41.4192 -0.081,-43.8718 -1.4225,-43.4845 -0.7824,0.2257 -4.3489,0.6525 -7.9255,0.9483 -21.2446,1.7573 -50.946,10.8978 -75.0686,23.1021 -21.6039,10.9299 -36.676,21.7464 -56.6164,40.6307 -27.4234,25.9708 -50.0783,63.6367 -60.4387,100.485 -6.2806,22.338 -8.2656,35.7034 -8.806,59.2917 -0.4587,20.0221 0.8052,34.3358 4.6708,52.8996 6.3145,30.3243 20.7796,62.9166 38.5741,86.9141 24.4825,33.0165 49.0728,53.6472 85.6462,71.8545 25.116,12.5036 51.3011,19.9143 80.3705,22.7459 0.8016,0.078 1.0161,-9.1582 1.0161,-43.7413 z m -904.10643,41.758 c 33.1158,-5.3103 62.0908,-15.9958 87.578,-32.2973 34.5279,-22.0839 59.6705,-48.6318 79.0675,-83.4866 16.7647,-30.1248 25.8159,-60.7791 28.6815,-97.138 3.2485,-41.2157 -7.1224,-87.1124 -28.5916,-126.5336 -17.6664,-32.4386 -45.3102,-61.8565 -77.0332,-81.9773 -15.4284,-9.7857 -37.9786,-20.3646 -53.6894,-25.1872 -15.6477,-4.8031 -38.3623,-9.7296 -44.9632,-9.7518 -1.3372,0 -1.4225,2.6248 -1.4225,43.8747 v 43.8795 l 2.2354,0.5088 c 23.7759,5.412 40.152,12.6291 58.6026,25.8267 8.8295,6.3157 23.7011,21.1295 29.5226,29.4079 5.8158,8.2703 13.4505,20.864 15.5042,25.5746 2.8775,6.6002 7.7206,21.4001 9.4431,28.8569 6.714,29.0665 3.3264,62.2403 -9.1059,89.1721 -15.4547,33.4787 -40.0298,57.8782 -72.8743,72.3535 -8.1885,3.6088 -21.6519,8.0818 -27.6376,9.1821 -6.3075,1.1594 -5.6901,-3.7409 -5.6901,45.1642 0,38.566 0.1478,43.8402 1.2281,43.8402 0.6754,0 4.7906,-0.5713 9.1448,-1.2694 z m 958.66163,0.076 c 40.25,-5.6501 82.7879,-25.0066 114.1154,-51.9273 18.5365,-15.9289 38.2391,-39.0923 48.5031,-57.0228 20.949,-36.5961 30.5462,-69.3094 32.7905,-111.7697 0.4808,-9.0953 -0.393,-27.9146 -1.7266,-37.1888 l -0.4967,-3.4547 H 1520.5533 1401.56 v 39.4242 39.4242 h 72.7519 c 40.0136,0 72.752,0.1734 72.752,0.3853 0,1.0438 -5.2443,13.3867 -8.1064,19.0791 -5.7577,11.4515 -14.6956,24.3658 -22.7187,32.8263 -5.507,5.8072 -18.4179,16.8454 -24.4422,20.8968 -12.5795,8.4601 -35.3253,18.375 -48.3737,21.0862 -2.2354,0.4645 -4.8874,1.0316 -5.8933,1.2603 l -1.829,0.4157 v 43.8795 c 0,35.9019 0.196,43.8795 1.0778,43.8795 0.5928,0 4.9049,-0.5372 9.5824,-1.1938 z m 178.7866,-314.0813 c -13.1697,-32.567 -35.4409,-63.7166 -62.2326,-87.0415 -28.7684,-25.0458 -59.5408,-40.7786 -99.4247,-50.832 -7.4562,-1.8795 -22.5316,-4.4424 -26.367,-4.4825 -1.3374,-0.014 -1.4225,2.6101 -1.4225,43.8488 v 43.8636 l 3.0483,0.7774 c 1.6765,0.4276 4.3285,1.016 5.8933,1.3075 8.4682,1.5778 29.2575,9.9029 38.2049,15.2992 17.5529,10.5864 34.111,25.4621 43.853,39.3975 l 5.2418,7.4979 h 48.5511 48.551 z"
       id="path117-0"
       inkscape:export-filename="G:\Shared drives\ORGM - ADM\ADMINISTRACIÓN\LOGO\LOGO LEMA EN.png"
       inkscape:export-xdpi="96"
       inkscape:export-ydpi="96" />
    <text
       xml:space="preserve"
       transform="matrix(1.5308179,0,0,1.5308179,-1125.9138,783.09276)"
       id="text7653-5"
       style="font-style:normal;font-variant:normal;font-weight:bold;font-stretch:normal;font-size:64.4538px;line-height:1.25;font-family:Tahoma;-inkscape-font-specification:'Tahoma Bold';white-space:pre;shape-inside:url(#rect7655-4);display:inline;fill:#000000;fill-opacity:1;stroke:none"
       inkscape:export-filename="G:\Shared drives\ORGM - ADM\ADMINISTRACIÓN\LOGO\LOGO LEMA EN.png"
       inkscape:export-xdpi="96"
       inkscape:export-ydpi="96"><tspan
         x="797.04492"
         y="957.79534"
         id="tspan2023">ENGINEERING AND PROJECT DEVELOPMENT</tspan></text>
    <text
       xml:space="preserve"
       transform="matrix(1.0000052,0,0,1.0000052,-0.00632588,0)"
       id="text30241"
       style="font-style:normal;font-weight:normal;font-size:40px;line-height:1.25;font-family:sans-serif;white-space:pre;shape-inside:url(#rect30243);display:inline;fill:#000000;fill-opacity:1;stroke:none" />
    <text
       xml:space="preserve"
       style="font-size:12.0001px;fill:#000000;stroke-width:1"
       x="-2815.4841"
       y="-1751.9453"
       id="text725"
       inkscape:export-filename="G:\Shared drives\ORGM - ADM\ADMINISTRACIÓN\LOGO\GRUPO GERENCIA.png"
       inkscape:export-xdpi="96"
       inkscape:export-ydpi="96"><tspan
         sodipodi:role="line"
         id="tspan723"
         style="stroke-width:1"
         x="-2815.4841"
         y="-1751.9453">SS</tspan></text>
    <text
       xml:space="preserve"
       style="font-size:12.0001px;fill:#000000;stroke-width:1"
       x="-5960.7417"
       y="-1273.7672"
       id="text767"
       inkscape:export-filename="G:\Shared drives\ORGM - ADM\ADMINISTRACIÓN\LOGO\GRUPO GERENCIA.png"
       inkscape:export-xdpi="96"
       inkscape:export-ydpi="96"><tspan
         sodipodi:role="line"
         id="tspan765"
         style="stroke-width:1"
         x="-5960.7417"
         y="-1273.7672">S</tspan></text>
    <rect
       style="fill:#000000;stroke-width:0.783607"
       id="rect247"
       width="639.54736"
       height="696.64984"
       x="-1068.8962"
       y="52.46735"
       ry="93.648003"
       inkscape:export-filename="ICONO.png"
       inkscape:export-xdpi="96"
       inkscape:export-ydpi="96" />
    <g
       id="g1900"
       transform="translate(-1122.2183,-14.574262)">
      <path
         style="fill:#3471cd;fill-opacity:1;stroke-width:2.91484"
         d="m 349.78074,-235.20601 c -75.30018,-12.65795 -140.03845,-59.57416 -172.17559,-124.77667 -30.46342,-61.80674 -31.45534,-137.70206 -2.60552,-199.35597 18.71361,-39.99216 52.1889,-77.04875 89.59335,-99.17833 20.87268,-12.34889 63.92555,-27.75749 84.53545,-30.25519 l 12.46446,-1.51056 -0.80511,42.53972 -0.8051,42.53971 -14.01653,3.57223 c -40.25727,10.25988 -76.12229,40.14065 -94.41618,78.66239 -9.62201,20.26122 -10.99833,26.00763 -12.0638,50.36853 -0.69915,15.98546 0.31818,34.33336 2.4299,43.82422 11.2262,50.4548 54.44421,94.06392 105.15925,106.11092 l 14.36478,3.41226 v 43.03279 c 0,23.66803 -0.98376,42.85418 -2.18613,42.63586 -1.20237,-0.21833 -5.46532,-0.9482 -9.47323,-1.62191 z"
         id="path1847"
         transform="matrix(1.0000045,0,0,1.0000045,-0.00549857,0)" />
      <path
         style="fill:#3471cd;fill-opacity:1;stroke-width:2.91484"
         d="m 408.07753,-277.90578 v -41.80379 l 12.38807,-3.70718 c 63.54474,-19.01594 104.20551,-73.09167 104.20551,-138.58531 0,-64.36442 -39.16448,-118.18181 -99.83325,-137.18464 l -16.76033,-5.24971 v -42.83435 -42.83435 l 18.21775,3.85234 c 87.90242,18.58796 155.44301,83.40194 177.40277,170.24102 5.32388,21.05309 6.00428,30.10199 4.70911,62.62792 -1.6574,41.62232 -5.50432,57.86891 -21.42564,90.48631 -28.93083,59.26947 -81.66778,103.51729 -143.9471,120.77579 -37.40546,10.36558 -34.95689,12.87211 -34.95689,-35.78405 z"
         id="path1849"
         transform="matrix(1.0000045,0,0,1.0000045,-0.00549857,0)" />
    </g>
    <g
       id="g1971">
      <path
         style="fill:#3471cd;fill-opacity:1;stroke-width:2.91485"
         d="m -793.15095,628.13881 c -40.82638,-8.13561 -81.86287,-29.14806 -112.0211,-57.35967 -32.49555,-30.398 -53.42104,-64.97267 -65.9827,-109.02198 -9.20544,-32.27998 -9.16984,-83.25492 0.081,-116.10011 7.38033,-26.20367 22.5377,-57.98281 37.14927,-77.88772 14.84016,-20.21633 45.0308,-47.24776 68.0305,-60.91162 19.97369,-11.86618 60.78898,-26.68145 82.52158,-29.95404 l 10.93074,-1.64598 v 43.16699 43.16699 l -10.93074,1.78765 c -29.37074,4.80339 -68.90071,33.04895 -88.0787,62.93532 -28.63823,44.62879 -29.54003,105.83981 -2.22831,151.24163 18.40588,30.59703 59.06726,60.38214 90.30701,66.15135 l 10.93074,2.01863 v 43.3984 c 0,23.86911 -0.328,43.27515 -0.7287,43.12448 -0.4008,-0.1507 -9.39214,-2.00029 -19.98079,-4.11032 z"
         id="path1902" />
      <path
         style="fill:#3471cd;fill-opacity:1;stroke-width:2.91485"
         d="m -722.93013,625.96462 c -0.023,-2.00396 -0.86691,-20.84205 -1.87611,-41.86243 l -1.83501,-38.21885 10.01125,-1.87811 c 35.42286,-6.64536 77.96075,-40.21965 94.72882,-74.76738 l 9.16984,-18.8931 -26.65902,-1.85988 c -14.66246,-1.02293 -47.31801,-2.00669 -72.56792,-2.18614 l -45.90891,-0.32626 V 408.07938 370.1863 h 118.46483 118.46494 l -1.60121,38.6218 c -1.16111,28.00711 -3.35742,44.22955 -7.99144,59.02577 -19.33608,61.73935 -61.80607,112.0367 -118.03023,139.78362 -36.06446,17.79804 -74.26963,27.22328 -74.36983,18.34713 z"
         id="path1904" />
      <path
         style="fill:#3471cd;fill-opacity:1;stroke-width:2.91485"
         d="m -635.43304,315.74155 c -14.17206,-20.80414 -55.69495,-47.53236 -81.33246,-52.35353 l -9.90825,-1.86325 1.85841,-40.85381 c 1.0222,-22.4696 2.56591,-41.56125 3.43051,-42.42589 2.86142,-2.86139 37.50537,5.7356 58.89177,14.61414 54.11974,22.46779 99.43195,66.70247 122.67595,119.75875 l 6.06573,13.84556 -47.20241,-0.0199 -47.20252,-0.0199 z"
         id="path1906" />
    </g>
  </g>
</svg>
